<mxfile host="app.diagrams.net" modified="2023-06-01T22:04:12.419Z" agent="Mozilla/5.0 (Windows NT 10.0; Win64; x64) AppleWebKit/537.36 (KHTML, like Gecko) Chrome/113.0.0.0 Safari/537.36 Edg/113.0.1774.57" version="21.3.6" etag="MtSwl2X50QO-kzUJLDYu" type="gitlab">
  <diagram name="Page-1" id="V-_ZwqFQSWK7ffVBTM2u">
    <mxGraphModel>
      <root>
        <mxCell id="0" />
        <mxCell id="1" parent="0" />
      </root>
    </mxGraphModel>
  </diagram>
</mxfile>
